<svg width="262" height="263" viewBox="0 0 262 263" fill="none" xmlns="http://www.w3.org/2000/svg">
<path d="M131 250.138C196.65 250.138 249.869 196.919 249.869 131.269C249.869 65.6199 196.65 12.4005 131 12.4005C65.3507 12.4005 12.1313 65.6199 12.1313 131.269C12.1313 196.919 65.3507 250.138 131 250.138Z" fill="white" stroke="black" stroke-opacity="0.54" stroke-width="24"/>
<path d="M153.173 78.0649L165.721 65.5166L179.051 78.8463L192.381 65.5166L204.929 78.0649L191.599 91.3947L204.929 104.724L192.381 117.273L179.051 103.943L165.721 117.273L153.173 104.724L166.503 91.3947L153.173 78.0649Z" fill="black" fill-opacity="0.54"/>
<path d="M60.6216 78.0649L73.1698 65.5166L86.4996 78.8463L99.8294 65.5166L112.378 78.0649L99.048 91.3947L112.378 104.724L99.8294 117.273L86.4996 103.943L73.1698 117.273L60.6216 104.724L73.9513 91.3947L60.6216 78.0649Z" fill="black" fill-opacity="0.54"/>
<path d="M90.2144 158.468H171.786V175.25H90.2144V158.468Z" fill="black" fill-opacity="0.54"/>
</svg>
