<?xml version="1.0" standalone="no"?>
<!DOCTYPE svg PUBLIC "-//W3C//DTD SVG 20010904//EN"
 "http://www.w3.org/TR/2001/REC-SVG-20010904/DTD/svg10.dtd">
<svg version="1.0" xmlns="http://www.w3.org/2000/svg"
 width="1374.000000pt" height="1374.000000pt" viewBox="0 0 1374.000000 1374.000000"
 preserveAspectRatio="xMidYMid meet">
<metadata>
Created by potrace 1.14, written by Peter Selinger 2001-2017
</metadata>
<g transform="translate(0.000000,1374.000000) scale(0.100000,-0.100000)"
fill="#000000" stroke="none">
<path d="M7575 11581 c-22 -10 -220 -114 -440 -231 -220 -117 -620 -330 -890
-473 -269 -143 -638 -338 -820 -435 -488 -259 -763 -405 -1125 -597 -479 -254
-1375 -730 -2035 -1080 -319 -169 -688 -365 -820 -435 -132 -70 -382 -203
-555 -295 -173 -92 -409 -217 -525 -278 -116 -60 -225 -121 -243 -134 -181
-134 -154 -763 62 -1408 98 -292 209 -525 334 -699 111 -154 102 -148 1003
-656 453 -255 865 -487 914 -515 85 -49 326 -184 660 -373 83 -46 184 -103
225 -127 41 -24 145 -82 230 -130 85 -48 193 -109 240 -136 1130 -640 2538
-1431 2555 -1435 13 -3 36 1 53 10 16 8 199 129 406 268 207 139 780 525 1273
856 494 332 1304 877 1800 1210 1371 922 2641 1775 3266 2195 309 207 570 387
580 398 36 44 12 138 -47 186 -33 25 -466 207 -474 198 -3 -3 21 -59 53 -125
32 -66 57 -121 54 -123 -2 -2 -211 -141 -464 -309 -253 -168 -1821 -1212
-3485 -2320 -1664 -1107 -3031 -2017 -3038 -2022 -8 -4 -37 6 -75 27 -34 19
-318 177 -632 352 -313 175 -750 418 -970 540 -356 198 -967 538 -2075 1155
-195 109 -668 372 -1050 584 -382 213 -708 399 -724 414 -173 164 -385 712
-462 1197 -28 174 -24 545 5 545 5 0 226 -114 492 -254 266 -139 1002 -524
1634 -856 633 -331 1584 -830 2115 -1107 531 -278 1079 -566 1219 -640 203
-108 260 -134 285 -131 19 2 190 105 431 258 220 139 483 306 585 370 102 64
320 202 485 307 165 104 548 346 850 538 303 192 685 434 850 538 165 105 341
216 390 247 50 31 185 117 300 190 116 73 252 160 303 192 50 32 134 84 185
116 101 65 410 260 1242 787 303 192 685 434 850 538 165 105 347 220 405 257
58 37 238 151 400 254 162 103 303 196 313 208 34 40 18 120 -36 175 -34 36
-36 37 -512 213 -165 62 -412 154 -550 205 -471 175 -770 287 -1025 382 -140
52 -369 137 -507 189 -139 52 -369 137 -510 190 -142 53 -395 147 -563 209
-168 63 -530 198 -805 300 -1632 608 -1504 566 -1590 526z"/>
</g>
</svg>
